<?xml version="1.0" encoding="utf-8"?>
<!-- Generator: Adobe Illustrator 19.0.1, SVG Export Plug-In . SVG Version: 6.00 Build 0)  -->
<!DOCTYPE svg PUBLIC "-//W3C//DTD SVG 1.1//EN" "http://www.w3.org/Graphics/SVG/1.1/DTD/svg11.dtd">
<svg version="1.1" id="Ebene_1" xmlns="http://www.w3.org/2000/svg" xmlns:xlink="http://www.w3.org/1999/xlink" x="0px" y="0px"
	 width="122.8px" height="36.5px" viewBox="0 0 122.8 36.5" enable-background="new 0 0 122.8 36.5" xml:space="preserve">
<path fill="#3C3C3B" d="M6.7,24.1l-5.2,1.7c1.2,2.8,3.2,5.3,5.9,7.3c2.7,1.9,5.7,3,8.7,3.4l0-5.4l-7.1-0.1L6.7,24.1z M24,6.8
	l3.2-4.4c-2.7-1.6-5.7-2.4-9-2.4c-3.3,0-6.4,0.9-9,2.4l3.1,4.4l5.8-4.1L24,6.8z M10.5,25.4l4.4-6.1L7.8,17l0.7,2.3l-3,1l1.2,3.8l3-1
	L10.5,25.4z M27.8,19.4l0.7-2.3l-7.1,2.3l4.4,6.1l0.8-2.3l3,1l1.2-3.8L27.8,19.4z M20.1,31l0,5.5c3.1-0.3,6-1.4,8.7-3.4
	c2.7-1.9,4.6-4.5,5.9-7.3l-5.1-1.7l-2.3,6.8L20.1,31z M9,13.2l7.1,2.3V8l-2,1.4l-1.8-2.5L9.1,9.2l1.8,2.5L9,13.2z M9.1,9.2L6,4.7
	c-2.3,2.1-4,4.7-5.1,7.9c-1,3.1-1.1,6.4-0.5,9.4l5.1-1.6l-2.1-6.9L9.1,9.2z M30.8,20.3L36,22c0.6-3,0.5-6.2-0.5-9.3
	c-1-3.1-2.8-5.8-5.1-7.9l-3.2,4.4l5.7,4.3L30.8,20.3z M20.2,8v7.5l7.1-2.3l-1.9-1.5l1.8-2.5L24,6.8l-1.8,2.5L20.2,8z M22.6,27.8
	l-4.4-6.1l-4.4,6.1l2.4,0V31h3.9l0-3.1L22.6,27.8z"/>
<path fill="#3C3C3B" d="M63.5,28.8h-7V20h7c3.4,0,5.3,1.6,5.3,4.5C68.7,27.4,66.9,28.8,63.5,28.8 M56.5,7h6.7c2.6,0,4.1,1.4,4.1,3.8
	c0,2.9-2.6,3.7-4.1,3.7h-6.7V7z M71.5,16.4c2.8-1.4,4.6-3.9,4.6-7.1c0-7.4-6.6-8.9-12.7-8.8h-15v35.2h15.4c7.5,0,13.7-2.6,13.7-11
	C77.5,20.7,75.2,17.5,71.5,16.4 M92.4,28.1h-3V8h3c6.3,0,9.1,3,9.1,9.9C101.5,25.5,99.3,28,92.4,28.1 M94,0.4H80.6v35.2H94
	c10.7,0,16.3-6.2,16.3-17.8C110.3,7,104.8,0.4,94,0.4 M114.1,35.7h8.7V0.5h-8.7V35.7z"/>
</svg>
