<svg xmlns="http://www.w3.org/2000/svg" viewBox="63 5156 24 18"><defs><style>.a{fill:#fff;}</style></defs><g transform="translate(63 5095.349)"><path class="a" d="M24,75.651a2.973,2.973,0,0,1-.385,1.443l-7.578-8.478,7.5-6.558A2.978,2.978,0,0,1,24,63.651v12Zm-12-5.5,10.43-9.126A2.963,2.963,0,0,0,21,60.651H3a2.952,2.952,0,0,0-1.429.378Zm2.908-.552-2.414,2.114a.753.753,0,0,1-.987,0L9.092,69.6,1.418,78.19A2.964,2.964,0,0,0,3,78.651H21a2.964,2.964,0,0,0,1.582-.461ZM.467,62.057A2.979,2.979,0,0,0,0,63.651v12a2.964,2.964,0,0,0,.385,1.443l7.577-8.48Z" transform="translate(0)"/></g></svg>