<svg xmlns="http://www.w3.org/2000/svg" viewBox="200 5325 12.4 18"><defs><style>.a{fill:#fff;}</style></defs><g transform="translate(133.095 5325)"><path class="a" d="M79.012,4.48a5.607,5.607,0,0,0-.29-.72A6.167,6.167,0,0,0,66.9,5.584v.768c0,.032.011.32.027.464.224,1.792,1.638,3.7,2.694,5.488,1.136,1.92,2.315,3.808,3.483,5.7.72-1.232,1.438-2.48,2.141-3.68.192-.352.414-.7.606-1.04.128-.224.372-.448.484-.656,1.136-2.08,2.965-4.176,2.965-6.24V5.536A6.386,6.386,0,0,0,79.012,4.48ZM73.071,8.336a2.2,2.2,0,0,1-2.107-1.5,2.087,2.087,0,0,1-.059-.56v-.5A2.084,2.084,0,0,1,73.14,3.728a2.266,2.266,0,0,1,2.27,2.3A2.324,2.324,0,0,1,73.071,8.336Z" transform="translate(0 0)"/></g></svg>