<svg xmlns="http://www.w3.org/2000/svg" viewBox="1106 1787 54.563 60"><defs><style>.a{fill:#1d2126;}</style></defs><g transform="translate(1104.392 1787)"><path class="a" d="M52.735,43.172c0,3.28-2.332,6.858-5.208,6.858s-5.208-3.573-5.208-6.858,2.332-5.02,5.208-5.02S52.735,39.892,52.735,43.172Zm-47.686,0c0,3.28,2.332,6.858,5.208,6.858s5.208-3.573,5.208-6.858-2.332-5.02-5.208-5.02S5.049,39.892,5.049,43.172Zm18.637,0c0,3.28,2.33,6.858,5.206,6.858S34.1,46.457,34.1,43.172s-2.332-5.02-5.208-5.02S23.686,39.892,23.686,43.172Zm31.825,9.091a2.3,2.3,0,0,0-1.625-.675H41.165a2.289,2.289,0,0,0-2.289,2.289l0,6.122H56.1l.073-6.1A2.284,2.284,0,0,0,55.511,52.263Zm-38.894-.675H3.9a2.288,2.288,0,0,0-2.289,2.289V60H18.832l.073-6.1a2.3,2.3,0,0,0-.664-1.632A2.267,2.267,0,0,0,16.617,51.588Zm18.636,0H22.535a2.288,2.288,0,0,0-2.289,2.289l0,6.122H37.464l.073-6.1a2.3,2.3,0,0,0-.661-1.632A2.273,2.273,0,0,0,35.252,51.588ZM54.216,5.831V28.789a5.827,5.827,0,0,1-5.828,5.828H21.706V18.9l3.366,4.565a1.807,1.807,0,0,0,2.382.478l4.019-2.411a1.808,1.808,0,1,0-1.86-3.1L27,20l-3.243-4.4a1.815,1.815,0,0,0-1.456-.737h-3.9l-.68.908,1.251,7.086-1.694,1.6-1.7-1.6,1.251-7.086-.681-.908h-3.9a1.808,1.808,0,0,0-1.807,1.806V28.415a1.8,1.8,0,0,0,2.409,1.7v4.5H9.4a5.827,5.827,0,0,1-5.828-5.828V5.828A5.827,5.827,0,0,1,9.4,0H48.388A5.829,5.829,0,0,1,54.216,5.831ZM21.4,8.212a3.807,3.807,0,0,0-4.115-3.967,3.806,3.806,0,0,0-4.112,3.967c0,2.592,1.841,5.419,4.112,5.419S21.4,10.8,21.4,8.212Z" transform="translate(0)"/></g></svg>