<svg xmlns="http://www.w3.org/2000/svg" viewBox="1115 2436 36.914 60"><defs><style>.a{fill:#1d2126;}</style></defs><path class="a" d="M126.085,7.279a2.729,2.729,0,0,0-2.729,2.729V21.837a.91.91,0,1,1-1.82,0V4.549a2.73,2.73,0,1,0-5.459,0V20.017a.91.91,0,0,1-1.82,0V2.73a2.73,2.73,0,1,0-5.459,0V20.017a.911.911,0,0,1-.91.91c-.5,0-.584-.408-.584-.91V6.369a2.73,2.73,0,1,0-5.459,0s.025,10.023.025,11.049a2.393,2.393,0,0,0,.5,1.657c2.052,2.7,3.989,5.253,4.263,5.607,1.552,2.008,1.7,1.121,5.561,2.044l.007,0h0a6.99,6.99,0,0,1,.724.208c1.908.655,6.26,2.266,6.26,2.266a1.508,1.508,0,0,1,.989,1.9,1.555,1.555,0,0,1-2,.836s-1.753-.5-1.929-.558-.652-.144-.234.4l5.624,7.276a1.194,1.194,0,0,1-1.89,1.461l-3.652-4.725c-.135-.174-.272-.293-.446-.159a.4.4,0,0,0-.071.559l4.626,5.985a1.194,1.194,0,0,1-1.89,1.461l-4.627-5.986a.4.4,0,0,0-.63.487l4.14,5.355a1.194,1.194,0,0,1-1.89,1.461l-4.627-5.985a.4.4,0,0,0-.63.487l3.165,4.1a1.195,1.195,0,0,1-1.89,1.461L104.748,36.5l-.045-.059c-2.593-3.4-1.1-4.991-2.82-7.4l-.225-.3c-.515-.67-1.348-1.786-2.312-3.086L98.16,24.073a3.553,3.553,0,0,0-4.784-1.283,3.446,3.446,0,0,0-.865,4.815s5.618,9,8.15,12.845a16.485,16.485,0,0,0,1.018,1.389h0v0l.011.014c3.038,3.9,5.045,7.357,5.045,10.762,0,1.158-.018,3.747-.049,5.324-.019.943-.23,2.059,1.444,2.059h13.984c1.423,0,1.389-1.067,1.4-1.535.144-5.783.037-1.462.037-5.848,0-7.282,5.2-7.851,5.258-17.872,0-.059,0-.116,0-.169V10.009A2.73,2.73,0,0,0,126.085,7.279Z" transform="translate(1023.099 2436)"/></svg>