<svg xmlns="http://www.w3.org/2000/svg" viewBox="743 1787 49.928 60"><defs><style>.a{fill:#1d2126;}</style></defs><g transform="translate(707.698 1787)"><path class="a" d="M80.2,39.231a4.822,4.822,0,0,0-2.748-2.344l-3.688-1.7c0-2.707-.03-16.19-.014-17.608a17.749,17.749,0,0,0-.821-5.881l4.592-1.659.011,4.242h-.312a.4.4,0,0,0-.434.353l-.4,3.5a.4.4,0,0,0,.36.443h3.207a.4.4,0,0,0,.36-.446q-.121-1.032-.242-2.063l-.167-1.44a.4.4,0,0,0-.434-.352h-.312l.007-4.833.163-.059.543-.2a1.16,1.16,0,0,0,0-2.183L60.661.07a1.154,1.154,0,0,0-.789,0l-19.2,6.94a1.16,1.16,0,0,0,0,2.183l6.964,2.517a17.831,17.831,0,0,0-.862,6.028V35.189l-3.688,1.7a4.862,4.862,0,0,0-2.748,2.344S32.2,60,36.614,60H83.919C88.33,60,80.2,39.231,80.2,39.231ZM67.658,37.448A11.891,11.891,0,0,0,60.276,46.7c0,.019-.015.019-.018,0a11.892,11.892,0,0,0-7.382-9.254l4.057-4.029c-5.719-2.565-7.24-11.287-7.24-11.287a11.575,11.575,0,0,1-.362-2.123c2.863-.2,12.857-1.056,13.54-4.3.942,1.74,5.929,6.114,7.946,6.446,0,0-1.958,8.625-7.308,11.254Z"/></g></svg>