<svg xmlns="http://www.w3.org/2000/svg" viewBox="1102 2112 63.151 60"><defs><style>.a{fill:#1d2126;}</style></defs><path class="a" d="M36.659,15.364a3.158,3.158,0,0,1-.358-.7l.129-.119.69.284c.207.083.461.184.752.3a8.82,8.82,0,0,0,.933.306,2.762,2.762,0,0,0,.505.121c.087.012.17.036.257.051s.171.009.257.019a5.29,5.29,0,0,0,1.011-.009c.161-.059.341-.076.516-.152a3.962,3.962,0,0,0,.521-.272c.079-.054.161-.111.249-.167a.984.984,0,0,0,.286-.2l.615-.516c.006-.008-.036.053-.016.025l0,0,.01-.009.02-.017.04-.036.081-.072.161-.141.3-.289c.191-.2.432-.351.625-.541s.445-.317.649-.508c.217-.171.471-.3.716-.466a3.076,3.076,0,0,1,1.655-.347c.135.014.266.036.4.059s.242.078.358.121a3.4,3.4,0,0,1,.635.3,4.378,4.378,0,0,1,.937.73,4.19,4.19,0,0,1,.558.706,3.319,3.319,0,0,1,.274.517c.047.129.071.2.071.2l-.129.12s-.277-.094-.7-.271c-.207-.083-.458-.186-.747-.3s-.585-.241-.908-.35a4.5,4.5,0,0,0-.5-.162c-.085-.021-.17-.054-.255-.079a2.252,2.252,0,0,1-.257-.067,5.341,5.341,0,0,0-1.151-.271,2.514,2.514,0,0,0-.66.107,1.868,1.868,0,0,0-.6.368,2.584,2.584,0,0,0-.47.559l-.168.337-.077.17-.038.084-.019.043-.009.019,0,.01,0,.006c.017-.025-.026.039-.023.036l-.331.731a3.749,3.749,0,0,1-.562.736,4.413,4.413,0,0,1-.73.6,5.246,5.246,0,0,1-.861.417,3.446,3.446,0,0,1-1.794.062,3.064,3.064,0,0,1-.752-.257,4.364,4.364,0,0,1-.626-.341,4.852,4.852,0,0,1-.914-.774A4.432,4.432,0,0,1,36.659,15.364ZM63.151,56.833V71.888H0V56.833H4.3V39.922l12.122-8.505v8.505l12.12-8.505v8.505l12.123-8.505V48.134h4.183l2.271-29.572h6.933l1.988,29.572h4.664v8.7h2.445ZM19.8,50.332h-9.53v8.8H19.8Zm16.422,0H26.688v8.8h9.531Zm16.629,0h-9.53v8.8h9.53Z" transform="translate(1102 2100.112)"/></svg>