<svg version="1" xmlns="http://www.w3.org/2000/svg" width="682.667" height="682.667" viewBox="0 0 512.000000 512.000000"><path d="M215.5 2.4c-5.9 2.7-7.7 4.6-10.4 10.6-3.7 8.1-2 16.9 4.5 23.4 4.2 4.2 8.8 5.8 18.7 6.4l8.7.5v9.4l-5.7.7c-13.9 1.6-22.7 3.9-25.5 6.7-3.7 3.6-3.6 7.2.1 11 3.5 3.4 3.8 3.5 16.6.9 5.5-1.1 14.8-2.3 20.8-2.6l10.7-.7v8.9c0 10 1.2 13.2 5.4 15.2 3.3 1.7 6.9.9 9.6-2 1.7-1.9 2-3.5 2-12V69h5.3c17.6 0 48.9 7.8 71.7 17.8 13.6 6 12.9 5.2 9.7 10.9-5.9 10.2-7 13-6.3 15.6 1.4 5.7 8.5 8.6 12.8 5.3.9-.7 3.6-4.6 6-8.6s4.8-7.5 5.3-7.7c1.5-.4 17.3 11.3 27.6 20.3 5 4.3 12.6 12 17.1 17.1 7.6 8.6 20.7 26 20.8 27.5 0 .4-3.8 2.9-8.4 5.7-4.6 2.8-8.7 5.8-9 6.7-2.2 5.8 2.1 12.4 8.2 12.4.9 0 5.2-2 9.6-4.5 4.3-2.5 8.2-4.5 8.6-4.5 1.1 0 8.7 17.2 12.9 29.4 6.2 18.1 11 42.1 11.1 55.3v5.3h-9.4c-8.4 0-9.8.3-12 2.2-1.5 1.3-2.9 3.7-3.2 5.5-.5 2.7-.1 3.7 2.4 6.3 3 2.9 3.3 3 12.6 3h9.6v5.7c0 13.1-5.9 41.4-12.1 58.3-4.1 11.3-11 26-12.1 26-.5 0-4-1.8-7.8-4-9.7-5.7-12.2-6-16-2.2-3.1 3.1-3.8 6.8-2 10.2.5 1 4.6 3.9 9 6.5s8 5.1 8 5.5c0 1.3-10.8 15.9-18.1 24.7-11.2 13.1-26.9 27.1-41.9 37.3l-5.7 3.9-4.3-7.5c-4.7-8.2-8-11.4-11.7-11.4-3.1 0-8.3 5.1-8.3 8.1 0 1.2 2.1 6 4.6 10.6 2.5 4.7 4.4 8.6 4.2 8.9-.2.2-4.9 2.5-10.4 5-19.6 9.2-46.2 16.3-67.7 18.2-5.4.4-10 .6-10.2.3-.3-.2-.5-4.8-.5-10.1 0-8.7-.2-9.8-2.2-11.7-3.4-3-5.5-3.4-9.2-1.9-4.3 1.8-5.6 5.5-5.6 16.2v8.3l-5.2-.5c-16.9-1.7-24.1-2.6-30.5-4-6.1-1.3-7.6-1.4-9.9-.2-5.7 2.7-6.9 9.3-2.5 13.7 3.5 3.5 34 8 54.1 8.1 110.1.2 204.7-76.8 227-184.9 6.5-31.9 6-65.4-1.6-99.1-7-31-25.7-68.3-46.6-92.9-3.5-4-6.7-8-7.3-8.7-.7-1 1.2-3.6 8-10.4l9-9 5.5 5.5c3.1 3 6 5.5 6.5 5.5 1.3 0 35.5-34.2 35.5-35.5 0-1.3-34.2-35.5-35.5-35.5-1.3 0-35.5 34.2-35.5 35.5 0 .6 2.5 3.5 5.5 6.5l5.5 5.4-8.7 8.8c-4.8 4.9-9.2 8.8-9.8 8.8-.6 0-2.4-1.4-4.1-3.1-1.6-1.7-7.1-6.2-12.2-10.1-31-23.4-65.7-38.4-102.8-44.4L288 52.7v-9.4l9.3-.5c16.5-.9 24.7-8.1 24.7-21.7 0-6.2-1-8.9-5.2-13.6C310.3 0 310.7 0 263 0h-42.5l-5 2.4zm88.3 15.8c1.8 1.8 1.4 5.6-.7 6.8-1.1.5-8.6 1-17 1H271v25h-17V26h-14.8c-11.7 0-15.2-.3-17-1.6-2.6-1.8-2.8-3.7-.6-5.8 1.3-1.4 6.5-1.6 41.3-1.6 29.5 0 40 .3 40.9 1.2zm162.9 58c2.9 2.9 5.3 5.7 5.3 6.2 0 1.3-10.1 11.6-11.4 11.6-1.3 0-11.6-10.1-11.6-11.4 0-1.3 10.1-11.6 11.4-11.6.6 0 3.4 2.3 6.3 5.2zM141.3 119.7c-3.1.6-6.3 5-6.3 8.4 0 1.5 1.1 4.1 2.4 5.6l2.4 2.8h49l2.6-2.4c3.6-3.4 3.6-8.8 0-12.2-2.5-2.4-2.7-2.4-25.2-2.5-12.5-.1-23.7 0-24.9.3zM97 180.3c-5.3 2.7-6.2 9.6-1.8 13.7 2.1 1.9 3.4 2 47.9 2 44.6 0 45.7 0 48.3-2.1 1.9-1.5 2.6-3 2.6-5.5 0-4.8-1.4-7-5.1-8.3-4.8-1.7-88.6-1.5-91.9.2z"/><path d="M350.8 196.1c-66.4 47.8-104.3 75.8-106.7 78.8-9.8 12.4-8.6 29.9 2.9 41 11.1 10.8 30.6 10.6 41.4-.3 4.5-4.6 81-109.9 83.8-115.5 2-3.9 1.6-6.5-1.5-9.9-3.8-4.1-7.3-3.1-19.9 5.9zm-48.8 73c-13.3 18.4-25.5 34.4-27.3 35.6-6.5 4.7-15.1 2.2-18.8-5.4-2.3-4.7-1.9-9.3 1-13.1 1.6-2.2 68.2-51.1 68.9-50.7.1.1-10.6 15.3-23.8 33.6zM53.3 240.5c-4.7 3.3-4.4 11.8.6 14.4 1.4.8 21.8 1.1 69.2.9l67.1-.3 1.9-2.4c2.7-3.3 2.5-8.6-.6-11.6l-2.4-2.5h-66.8c-57.5 0-67.2.2-69 1.5zM18.3 301.2c-3 3.4-3.4 5.5-1.9 9.2.9 2.3 2.4 3.7 4.6 4.5 4.6 1.5 163.3 1.6 167.9 0 3.7-1.3 5.1-3.5 5.1-8.3 0-2.5-.7-4-2.6-5.5-2.7-2.1-3.2-2.1-86.9-2.1H20.3l-2 2.2zM73.5 358.7c-6.3 1.6-8.8 9.8-4.2 14.1l2.3 2.2h118.1l2.1-2.3c3.1-3.3 2.9-8.7-.4-11.8l-2.6-2.4-56.6-.1c-31.2-.1-57.6 0-58.7.3zM122.5 419.2c-5.1 2.9-6.1 9.3-2 13.3l2.4 2.5h32.9c31.8 0 33-.1 35.6-2.1 1.9-1.5 2.6-3 2.6-5.4 0-9.3-.7-9.5-38.2-9.5-21.7.1-31.9.4-33.3 1.2z"/></svg>