<?xml version="1.0" standalone="no"?>
<!DOCTYPE svg PUBLIC "-//W3C//DTD SVG 20010904//EN"
 "http://www.w3.org/TR/2001/REC-SVG-20010904/DTD/svg10.dtd">
<svg version="1.0" xmlns="http://www.w3.org/2000/svg"
 width="256.000000pt" height="256.000000pt" viewBox="0 0 256.000000 256.000000"
 preserveAspectRatio="xMidYMid meet">
<metadata>
Created by potrace 1.11, written by Peter Selinger 2001-2013
</metadata>
<g transform="translate(0.000000,256.000000) scale(0.100000,-0.100000)"
fill="#000000" stroke="none">
<path d="M1116 2549 c-353 -49 -671 -240 -877 -529 -160 -223 -233 -457 -233
-740 0 -170 14 -260 64 -412 123 -367 431 -675 798 -798 152 -50 242 -64 412
-64 170 0 260 14 412 64 367 123 675 431 798 798 50 152 64 242 64 412 0 170
-14 260 -64 412 -61 183 -168 353 -312 495 -186 182 -397 295 -653 348 -96 20
-314 28 -409 14z m74 -424 l0 -245 -205 0 c-113 0 -205 2 -205 4 0 17 66 160
101 219 70 118 235 267 297 267 9 0 12 -56 12 -245z m282 204 c65 -42 158
-144 208 -228 34 -57 100 -200 100 -217 0 -2 -92 -4 -205 -4 l-205 0 0 246 0
246 28 -7 c15 -3 48 -20 74 -36z m-697 -85 c-51 -78 -93 -160 -132 -254 l-43
-105 -126 -3 -125 -3 18 32 c27 46 167 194 233 244 61 47 170 115 184 115 4 0
1 -12 -9 -26z m1054 0 c123 -71 313 -244 364 -333 l18 -32 -125 3 -126 3 -43
105 c-39 94 -81 176 -132 254 -22 33 -13 33 44 0z m-1279 -557 c0 -13 -5 -48
-10 -78 -6 -30 -13 -94 -18 -144 l-7 -90 -167 -3 -168 -2 0 38 c0 44 39 206
63 265 l16 37 145 0 c146 0 146 0 146 -23z m640 -147 l0 -170 -250 0 -250 0 0
48 c0 43 23 217 35 270 l5 22 230 0 230 0 0 -170z m645 148 c12 -53 35 -227
35 -270 l0 -48 -250 0 -250 0 0 170 0 170 230 0 230 0 5 -22z m482 -15 c24
-59 63 -221 63 -265 l0 -38 -167 2 -168 3 -7 90 c-5 50 -12 114 -18 144 -20
109 -31 101 136 101 l145 0 16 -37z m-1795 -578 c5 -49 12 -114 18 -144 20
-109 31 -101 -136 -101 l-145 0 -16 38 c-24 58 -63 220 -63 264 l0 38 168 -2
167 -3 7 -90z m668 -75 l0 -170 -230 0 -230 0 -5 23 c-12 52 -35 226 -35 270
l0 47 250 0 250 0 0 -170z m680 123 c0 -44 -23 -218 -35 -270 l-5 -23 -230 0
-230 0 0 170 0 170 250 0 250 0 0 -47z m510 8 c0 -43 -39 -205 -63 -263 l-16
-38 -145 0 c-169 0 -154 -16 -131 136 8 54 15 120 15 145 0 25 3 49 7 52 3 4
80 7 170 7 l163 0 0 -39z m-1736 -583 c24 -59 66 -144 94 -190 27 -46 48 -85
46 -87 -5 -6 -93 48 -166 101 -72 53 -221 205 -251 257 l-18 32 125 -3 126 -3
44 -107z m546 -134 l0 -246 -27 7 c-116 29 -274 210 -354 406 -16 39 -29 73
-29 75 0 2 92 4 205 4 l205 0 0 -246z m590 242 c0 -2 -13 -36 -29 -75 -80
-196 -238 -377 -354 -406 l-27 -7 0 246 0 246 205 0 c113 0 205 -2 205 -4z
m413 -27 c-30 -52 -179 -204 -251 -257 -73 -53 -161 -107 -166 -101 -2 2 18
40 45 84 40 66 102 202 132 288 6 15 21 17 132 17 l126 0 -18 -31z"/>
</g>
</svg>
